<svg xmlns="http://www.w3.org/2000/svg" viewBox="0 0 1920 624.83" fill="white">
      <g>
        <g>
          <g>
            <circle class="st0" cx="218.01" cy="216.63" r="40.62"></circle>
            <circle class="st0" cx="313.46" cy="216.63" r="40.62"></circle>
            <circle class="st0" cx="408.91" cy="216.63" r="40.62"></circle>
            <circle class="st0" cx="313.46" cy="312.08" r="40.62"></circle>
            <circle class="st0" cx="313.46" cy="407.53" r="40.62"></circle>
          </g>

          <g>
            <path
              class="st0"
              d="m536.11,280.42h-37.85v-22.53h99.13v22.53h-37.85v103.64h-23.43v-103.64Z"
            ></path>
            <path
              class="st0"
              d="m676.51,357.03c-1.98,7.21-13.34,28.84-42.36,28.84-27.03,0-46.86-19.83-46.86-47.76s19.83-47.76,46.86-47.76c25.24,0,45.06,19.83,45.06,45.96,0,2.7-.36,4.87-.54,6.49l-.36,2.52h-68.49c1.98,12.8,11.54,21.63,24.33,21.63,10.63,0,17.12-6.13,18.93-9.91h23.43Zm-19.83-27.03c-1.98-11.72-9.73-20.73-22.53-20.73-13.7,0-21.63,9.01-24.33,20.73h46.86Z"
            ></path>
            <path class="st0" d="m692.72,257.89h22.53v126.17h-22.53v-126.17Z"></path>
            <path
              class="st0"
              d="m817.97,357.03c-1.98,7.21-13.34,28.84-42.36,28.84-27.03,0-46.86-19.83-46.86-47.76s19.83-47.76,46.86-47.76c25.23,0,45.06,19.83,45.06,45.96,0,2.7-.36,4.87-.54,6.49l-.36,2.52h-68.49c1.98,12.8,11.54,21.63,24.33,21.63,10.63,0,17.12-6.13,18.93-9.91h23.43Zm-19.83-27.03c-1.98-11.72-9.73-20.73-22.53-20.73-13.7,0-21.63,9.01-24.33,20.73h46.86Z"
            ></path>
            <path
              class="st0"
              d="m841.39,313.77h-15.32v-21.63h15.32v-13.52c0-13.7,8.83-22.53,22.53-22.53h19.83v19.83h-13.52c-3.61,0-6.31,2.7-6.31,6.31v9.91h19.83v21.63h-19.83v70.3h-22.53v-70.3Z"
            ></path>
            <path
              class="st0"
              d="m980.85,338.1c0,27.94-19.83,47.76-46.86,47.76s-46.86-19.83-46.86-47.76,19.83-47.76,46.86-47.76,46.86,19.83,46.86,47.76Zm-22.53,0c0-16.22-10.81-27.03-24.33-27.03s-24.33,10.81-24.33,27.03,10.81,27.04,24.33,27.04,24.33-10.81,24.33-27.04Z"
            ></path>
            <path
              class="st0"
              d="m994.35,292.14h20.73l1.8,9.01h.9c1.62-1.98,3.79-3.78,6.13-5.41,4.15-2.7,10.46-5.41,19.11-5.41,20.73,0,36.05,15.32,36.05,38.75v54.97h-22.53v-53.17c0-11.72-8.11-19.83-19.83-19.83s-19.83,8.11-19.83,19.83v53.17h-22.53v-91.92Z"
            ></path>
            <path
              class="st0"
              d="m1222.47,349.82c-2.88,14.42-14.24,36.05-43.26,36.05-27.03,0-46.86-19.83-46.86-47.76s19.83-47.76,46.86-47.76c29.02,0,40.37,21.63,43.26,35.15h-22.53c-1.98-5.23-7.21-14.42-20.73-14.42s-24.33,10.81-24.33,27.03,10.81,27.04,24.33,27.04,18.75-9.01,20.73-15.32h22.53Z"
            ></path>
            <path
              class="st0"
              d="m1290.6,375.05h-.9c-1.62,1.98-3.78,3.78-6.31,5.41-4.33,2.7-10.63,5.41-19.83,5.41-20.91,0-33.34-12.8-33.34-27.94,0-18.02,12.62-30.64,37.85-30.64h20.73v-1.8c0-10.09-6.13-17.12-16.22-17.12s-15.32,6.49-16.22,11.72h-22.53c1.98-15.14,14.24-29.74,38.75-29.74s38.75,15.5,38.75,35.15v58.58h-18.93l-1.8-9.01Zm-1.8-30.64h-18.93c-11.72,0-17.12,4.51-17.12,11.71s5.23,11.72,14.42,11.72c13.7,0,21.63-7.93,21.63-20.73v-2.7Z"
            ></path>
            <path class="st0" d="m1096.32,292.14h22.53v91.92h-22.53v-91.92Z"></path>
            <circle class="st0" cx="1107.58" cy="265.59" r="13.33"></circle>
            <polygon
              class="st0"
              points="942.1 253.39 965.53 253.39 943.9 279.52 924.97 279.52 942.1 253.39"
            ></polygon>
          </g>
        </g>

        <g>
          <path
            class="st0"
            d="m1403.35,280.44h-37.86v-22.53h99.14v22.53h-37.85v103.65h-23.44v-103.65Z"
          ></path>
          <path
            class="st0"
            d="m1543.77,357.05c-1.99,7.21-13.34,28.84-42.36,28.84-27.04,0-46.87-19.83-46.87-47.77s19.83-47.77,46.87-47.77c25.24,0,45.06,19.83,45.06,45.97,0,2.71-.36,4.87-.54,6.49l-.36,2.52h-68.5c1.99,12.8,11.54,21.63,24.34,21.63,10.63,0,17.12-6.13,18.93-9.91h23.44Zm-19.83-27.04c-1.98-11.71-9.73-20.73-22.53-20.73-13.7,0-21.63,9.02-24.34,20.73h46.87Z"
          ></path>
          <path
            class="st0"
            d="m1645.98,349.84c-2.88,14.42-14.24,36.05-43.26,36.05-27.04,0-46.87-19.83-46.87-47.77s19.83-47.77,46.87-47.77c29.02,0,40.38,21.63,43.26,35.15h-22.53c-1.99-5.23-7.21-14.42-20.73-14.42s-24.34,10.82-24.34,27.04,10.82,27.04,24.34,27.04,18.74-9.02,20.73-15.32h22.53Z"
          ></path>
          <path
            class="st0"
            d="m1658.6,257.9h22.53v43.26h.9c1.62-1.99,3.79-3.79,6.13-5.41,4.15-2.71,10.46-5.41,19.11-5.41,20.73,0,36.05,15.32,36.05,38.75v54.98h-22.53v-53.18c0-11.72-8.11-19.83-19.83-19.83s-19.83,8.11-19.83,19.83v53.18h-22.53v-126.18Z"
          ></path>
        </g>
      </g>
    </svg>